<svg xmlns="http://www.w3.org/2000/svg" width="300" height="250" viewBox="0 0 300 250">
  <metadata><?xpacket begin="﻿" id="W5M0MpCehiHzreSzNTczkc9d"?>
<x:xmpmeta xmlns:x="adobe:ns:meta/" x:xmptk="Adobe XMP Core 5.6-c142 79.160924, 2017/07/13-01:06:39        ">
   <rdf:RDF xmlns:rdf="http://www.w3.org/1999/02/22-rdf-syntax-ns#">
      <rdf:Description rdf:about=""/>
   </rdf:RDF>
</x:xmpmeta>
                                                                                                    
                                                                                                    
                                                                                                    
                                                                                                    
                                                                                                    
                                                                                                    
                                                                                                    
                                                                                                    
                                                                                                    
                                                                                                    
                                                                                                    
                                                                                                    
                                                                                                    
                                                                                                    
                                                                                                    
                                                                                                    
                                                                                                    
                                                                                                    
                                                                                                    
                                                                                                    
                           
<?xpacket end="w"?></metadata>
<defs>
    <style>
      .cls-1 {
        font-size: 80px;
        fill: red;
        font-family: "Times New Roman";
      }

      .cls-2 {
        fill: #fdc689;
        fill-rule: evenodd;
      }
    </style>
  </defs>
  <text id="Image" class="cls-1" x="34" y="57">Image</text>
  <path class="cls-2" d="M184.719,138.636a11.732,11.732,0,0,1-2.8-7.694,12.587,12.587,0,0,1,12.435-12.408,12.533,12.533,0,0,1,1.4,25l-18.919,51.21a338.663,338.663,0,0,0-40.462-2.97c-16.989,0-29.424,2.095-40.282,2.97L77.525,143.355c-6.132,0-11.563-5.769-11.563-12.413a12.774,12.774,0,0,1,12.615-12.583,12.622,12.622,0,0,1,12.435,12.583c0,1.924-.526,3.674-2.98,7.519l18.042,20.448,7.534-36.356c-4.9-.175-9.809-5.59-9.809-12.234a13.312,13.312,0,0,1,26.623,0c0,4.02-2.1,8.739-6.132,10.664l12.436,36h0.351l11.91-36a13.49,13.49,0,0,1-5.252-10.664,13.312,13.312,0,0,1,26.624,0c0,6.3-3.682,10.488-9.108,12.234l6.128,36.356ZM85.581,229c0-7.864-.175-23.6,10.161-24.467,10.857-.875,23.293-2.974,40.283-2.974a336.007,336.007,0,0,1,40.462,2.974c11.213,1.4,11.038,14.679,11.038,24.467H85.581Z"/>
</svg>
